<svg width="30" height="23" viewBox="0 0 139 108" fill="none" xmlns="http://www.w3.org/2000/svg">
<path d="M57.5249 57.525V40.9304H81.2314V57.5247" stroke="black" stroke-width="4.7413" stroke-miterlimit="10" stroke-linecap="round" stroke-linejoin="round"/>
<path d="M71.7489 57.525H67.0076V50.413C67.0076 49.1037 68.0689 48.0424 69.3782 48.0424" stroke="black" stroke-width="4.7413" stroke-miterlimit="10" stroke-linecap="round" stroke-linejoin="round"/>
<path d="M107.309 67.0076H90.7141V71.7489H78.8608V67.0076H59.8951L59.8956 71.7489H48.0423V67.0076H31.4478V71.7489V104.938H107.309V67.0076ZM107.309 67.0076V71.7489" stroke="black" stroke-width="4.7413" stroke-miterlimit="10" stroke-linecap="round" stroke-linejoin="round"/>
<path d="M7.74121 50.4131H31.4477V104.938H7.74121V50.4131Z" stroke="black" stroke-width="4.7413" stroke-miterlimit="10" stroke-linecap="round" stroke-linejoin="round"/>
<path d="M107.309 50.4131H131.015V104.938H107.309V50.4131Z" stroke="black" stroke-width="4.7413" stroke-miterlimit="10" stroke-linecap="round" stroke-linejoin="round"/>
<path d="M3 36.1891H36.1891V50.413H3V36.1891Z" stroke="black" stroke-width="4.7413" stroke-miterlimit="10" stroke-linecap="round" stroke-linejoin="round"/>
<path d="M53.969 26.7065H84.7875V40.9305H53.969V26.7065Z" stroke="black" stroke-width="4.7413" stroke-miterlimit="10" stroke-linecap="round" stroke-linejoin="round"/>
<path d="M102.567 36.1891H135.757V50.413H102.567V36.1891Z" stroke="black" stroke-width="4.7413" stroke-miterlimit="10" stroke-linecap="round" stroke-linejoin="round"/>
<path d="M69.3781 3L58.7102 26.7065H80.0461L69.3781 3Z" stroke="black" stroke-width="4.7413" stroke-miterlimit="10" stroke-linecap="round" stroke-linejoin="round"/>
<path d="M19.5945 12.4827L6.55591 36.1892H32.6331L19.5945 12.4827Z" stroke="black" stroke-width="4.7413" stroke-miterlimit="10" stroke-linecap="round" stroke-linejoin="round"/>
<path d="M119.162 12.4827L106.123 36.1892H132.2L119.162 12.4827Z" stroke="black" stroke-width="4.7413" stroke-miterlimit="10" stroke-linecap="round" stroke-linejoin="round"/>
<path d="M80.0461 104.938H58.7102V90.7141C58.7102 86.7862 61.8942 83.6022 65.8222 83.6022H72.9341C76.8621 83.6022 80.0461 86.7862 80.0461 90.7141V104.938Z" stroke="black" stroke-width="4.7413" stroke-miterlimit="10" stroke-linecap="round" stroke-linejoin="round"/>
<path d="M69.3782 83.6022V104.938" stroke="black" stroke-width="4.7413" stroke-miterlimit="10" stroke-linecap="round" stroke-linejoin="round"/>
<path d="M21.9652 69.3782H17.2239V62.2663C17.2239 60.957 18.2852 59.8956 19.5945 59.8956" stroke="black" stroke-width="4.7413" stroke-miterlimit="10" stroke-linecap="round" stroke-linejoin="round"/>
<path d="M121.533 69.3782H116.791V62.2663C116.791 60.957 117.853 59.8956 119.162 59.8956" stroke="black" stroke-width="4.7413" stroke-miterlimit="10" stroke-linecap="round" stroke-linejoin="round"/>
</svg>
