<svg width="30" height="30" viewBox="0 0 59 59" fill="none" xmlns="http://www.w3.org/2000/svg">
<path d="M10.9762 31.901H18.2609V24.6095H10.9762V31.901ZM14.9817 25.3386H17.5318V27.8897H14.9817V25.3386ZM14.9817 28.6198H17.5318V31.1728H14.9817V28.6198ZM11.7034 25.3386H14.2525V27.8897H11.7034V25.3386ZM11.7034 28.6198H14.2525V31.1728H11.7034V28.6198Z" fill="black"/>
<path d="M27.5493 31.901H32.6485V24.6095H27.5493V31.901ZM30.464 25.3386H31.9223V27.8897H30.464V25.3386ZM30.464 28.6198H31.9223V31.1728H30.464V28.6198ZM28.2785 25.3386H29.7339V27.8897H28.2785V25.3386ZM28.2785 28.6198H29.7339V31.1728H28.2785V28.6198Z" fill="black"/>
<path d="M32.3112 42.8771H25.0275V50.1696H32.3112V42.8771ZM28.3048 49.4394H25.7547V46.8884H28.3048V49.4394ZM28.3048 46.1592H25.7547V43.6062H28.3048V46.1592ZM31.583 49.4394H29.032V46.8884H31.583V49.4394ZM31.583 46.1592H29.032V43.6062H31.583V46.1592Z" fill="black"/>
<path d="M57.7527 46.5472C57.6905 46.5666 57.2404 46.6998 56.8106 47.007C56.554 46.8233 56.3041 46.7086 56.1233 46.6386V45.8005V45.1978L55.5429 45.363C55.4816 45.3796 55.0305 45.5137 54.6008 45.8229C54.1731 45.5147 53.7239 45.3796 53.6617 45.363L53.0813 45.1978V45.7996V46.2789L52.5534 46.4266C52.4921 46.4471 52.041 46.5793 51.6113 46.8875C51.4898 46.8019 51.3702 46.7329 51.2555 46.6726V33.5838C51.3284 33.6334 51.3887 33.6645 51.4665 33.719C55.7325 36.6813 56.3304 31.6715 55.8637 29.9031C54.9751 26.5237 57.427 25.7002 58.1027 22.8877C59.3014 17.8847 55.3144 15.1567 56.5462 10.3813C57.7819 5.60677 53.7103 -4.88719 48.4604 2.63377C46.726 5.11969 44.5978 0.656313 41.8553 4.49651C39.1117 8.33477 40.535 11.6519 41.3789 14.1583C43.0598 19.1398 39.6931 20.7547 41.901 24.9254C44.1088 29.0942 40.9365 31.1038 45.0946 33.4293C46.4509 34.1866 47.1431 34.1613 47.6126 33.892V37.9665L36.4741 34.8856V20.0518H39.205L31.0094 14.831V9.11447H31.9213V7.2916H30.0994H25.5456V9.11447H26.4575V11.93L19.1728 7.2916L0.958592 20.0518H3.68951V35.3727L0 38.3583H3.68951V54.6865H0.0476379V58.3322H58.233V54.6865H56.9876V50.2843H57.1674C57.8101 50.2843 58.3331 49.7623 58.3331 49.1187V46.9866V46.3839L57.7527 46.5472ZM54.2907 17.5367C55.2998 17.5367 56.1204 18.3562 56.1204 19.3683C56.1204 20.3784 55.2998 21.1999 54.2907 21.1999C53.2777 21.1999 54.8672 20.3784 54.8672 19.3683C54.8672 18.3562 53.2777 17.5367 54.2907 17.5367ZM52.706 7.70381C53.3875 7.70381 53.9407 8.25602 53.9407 8.93851C53.9407 9.62099 53.3885 10.1732 52.706 10.1732C52.0255 10.1732 53.0395 9.62099 53.0395 8.93851C53.0395 8.25602 52.0255 7.70381 52.706 7.70381ZM52.6905 27.7992C53.4449 27.7992 54.0564 28.4107 54.0564 29.1662C54.0564 29.9235 53.4449 30.5331 52.6905 30.5331C51.9341 30.5331 52.6905 29.9235 52.6905 29.1662C52.6905 28.4107 51.9341 27.7992 52.6905 27.7992ZM25.5475 20.0518H34.6522V34.6348H25.5475V20.0518ZM5.51239 20.0518H23.7247V34.6348H5.51239V20.0518ZM16.9299 49.525C16.6334 49.525 16.3962 49.2859 16.3962 48.9894C16.3962 48.6948 16.6334 48.4566 16.9299 48.4566C17.2255 48.4566 17.4646 48.6948 17.4646 48.9894C17.4646 49.2859 17.2255 49.525 16.9299 49.525ZM35.4378 54.6865H18.1744V44.7175H18.887V43.2932H17.4637H10.3491V44.7175H11.0588V54.6865H5.51239V38.3583H35.4378V54.6865ZM41.8562 49.4395H40.9618V46.8884H41.7668V48.9991C41.7668 49.1556 41.7998 49.3034 41.8562 49.4395ZM40.9618 46.1593V43.6063H42.4191V46.1593H40.9618ZM42.2228 46.8661C42.2228 46.8661 42.8673 47.0498 43.2873 47.4863C43.7093 47.0508 44.3538 46.8661 44.3538 46.8661V48.9991C44.3538 49.3919 44.0359 49.7117 43.6431 49.7117H42.9334C42.5407 49.7117 42.2247 49.3919 42.2247 48.9991V46.8661H42.2228ZM43.1094 54.6865H37.2606V38.3583H38.7724H43.9319V46.5355C43.752 46.6084 43.5197 46.7212 43.2873 46.8875C43.2406 46.8544 43.193 46.8282 43.1454 46.8V42.8762H38.0462V50.1686H43.1094V54.6865ZM38.7753 46.1593V43.6063H40.2317V46.1593H38.7753ZM40.2317 46.8884V49.4395H38.7753V46.8884H40.2317ZM43.9319 54.6865H43.4652V51.8097C43.5741 52.0051 43.7336 52.1636 43.9319 52.2705V54.6865ZM45.0207 54.6865H44.6669V52.4183H45.0207V54.6865ZM45.1802 51.9624H44.4685C44.0767 51.9624 43.7579 51.6464 43.7579 51.2526V50.1434C44.1331 50.1054 44.4462 49.8925 44.629 49.5834C44.6951 49.6349 44.7651 49.6767 44.8244 49.738C45.2444 49.3024 45.8899 49.1206 45.8899 49.1206V51.2517C45.8899 51.6464 45.572 51.9624 45.1802 51.9624ZM46.0989 54.6865H45.7548V52.2433C45.8928 52.1636 46.0056 52.0605 46.0989 51.9361V54.6865ZM45.9045 48.6413C45.5205 48.6316 45.2103 48.3205 45.2103 47.9335V45.7996C45.2103 45.7996 45.8559 45.9823 46.2768 46.4198C46.6978 45.9833 47.3433 45.7996 47.3433 45.7996V47.9335C47.3433 48.3263 47.0245 48.6442 46.6327 48.6442H46.3468V48.5159L45.9045 48.6413ZM47.6146 54.6865H46.4538V49.1012H46.6327C46.9233 49.1012 47.181 48.9835 47.3861 48.8066V49.1177C47.3861 49.3675 47.4814 49.5853 47.6146 49.7749V54.6865ZM47.6146 45.2512L47.2179 45.363C47.1567 45.3796 46.7056 45.5137 46.2768 45.8229C46.0941 45.6907 45.9132 45.5993 45.7548 45.5254V38.3583H47.6146V45.2512ZM53.1348 48.9991V48.1922C53.2018 48.4819 53.3691 48.723 53.6082 48.8834C53.4682 48.9524 53.3204 49.0321 53.1697 49.141C53.1503 49.1284 53.1318 49.1187 53.1124 49.1051C53.1173 49.0701 53.1348 49.037 53.1348 48.9991ZM47.9403 16.0677C47.9403 16.824 48.6937 17.4346 47.9403 17.4346C47.1858 17.4346 46.5734 16.824 46.5734 16.0677C46.5734 15.3132 47.1858 14.7008 47.9403 14.7008C48.6937 14.7008 47.9403 15.3132 47.9403 16.0677ZM47.9024 5.85176C48.9232 5.85176 47.4046 6.68202 47.4046 7.70381C47.4046 8.72559 48.9232 9.55488 47.9024 9.55488C46.8796 9.55488 46.0503 8.72559 46.0503 7.70381C46.0503 6.68202 46.8806 5.85176 47.9024 5.85176ZM43.6004 12.3976C43.6004 11.6432 44.2138 11.0307 44.9673 11.0307C45.7198 11.0307 44.7398 11.6432 44.7398 12.3976C44.7398 13.1549 45.7207 13.7655 44.9673 13.7655C44.2138 13.7655 43.6004 13.1549 43.6004 12.3976ZM47.0886 25.1889C45.5817 25.1889 44.3567 23.9639 44.3567 22.4541C44.3567 20.9442 45.5817 19.7193 47.0886 19.7193C48.5985 19.7193 46.4927 20.9442 46.4927 22.4541C46.4927 23.9639 48.5975 25.1889 47.0886 25.1889ZM49.0184 54.6865H48.6646V50.2843H49.0184V54.6865ZM49.9722 49.1177C49.9722 49.5114 49.6543 49.8274 49.2625 49.8274H48.5528C48.16 49.8274 47.8421 49.5114 47.8421 49.1177V46.9866C47.8421 46.9866 48.4867 47.1684 48.9086 47.6049C49.3286 47.1684 49.9741 46.9866 49.9741 46.9866V49.1177H49.9722ZM50.5477 48.9991V46.8661C50.5477 46.8661 51.1923 47.0498 51.6133 47.4873C52.0342 47.0508 52.6798 46.8661 52.6798 46.8661V48.9991C52.6798 49.3919 52.3628 49.7117 51.9691 49.7117H51.2603C50.8666 49.7127 50.5477 49.3928 50.5477 48.9991ZM51.4373 54.6865H51.2565V50.1686H51.2584H51.4373V54.6865ZM52.9918 54.6865H51.7921V51.7825C51.9876 52.1568 52.3667 52.4203 52.8159 52.4203H52.9928L52.9918 54.6865ZM52.8149 51.9643C52.4221 51.9643 52.1032 51.6454 52.1032 51.2517V50.1395C52.4737 50.0957 52.7818 49.8828 52.9617 49.5766C53.0317 49.631 53.1066 49.6718 53.1707 49.738C53.5917 49.3024 54.2372 49.1177 54.2372 49.1177V51.2507C54.2372 51.6444 53.9183 51.9633 53.5265 51.9633H53.3477H52.9928L52.8149 51.9643ZM54.4249 54.6865H53.3467V52.4203H53.5256C53.896 52.4203 54.2119 52.2346 54.4258 51.9643L54.4249 54.6865ZM54.247 48.6452C53.8542 48.6452 53.5382 48.3273 53.5382 47.9345V45.8005C53.5382 45.8005 54.1808 45.9833 54.6018 46.4198C55.0228 45.9843 55.6683 45.8005 55.6683 45.8005V47.9345C55.6683 48.3273 55.3504 48.6452 54.9576 48.6452H54.7797H54.4258H54.247ZM56.6327 54.6865H54.7797V49.1012H54.9576C55.0753 49.1012 55.1822 49.0681 55.2901 49.0351V49.1187C55.2901 49.7623 55.8132 50.2843 56.4568 50.2843H56.6337L56.6327 54.6865ZM57.8762 49.1177C57.8762 49.5114 57.5583 49.8274 57.1665 49.8274H56.9866H56.6327H56.4558C56.063 49.8274 55.7451 49.5114 55.7451 49.1177V48.7833C55.9746 48.5684 56.1243 48.2709 56.1243 47.9335V47.1363C56.3372 47.2355 56.6007 47.3862 56.8116 47.604C57.2316 47.1675 57.8772 46.9857 57.8772 46.9857V49.1177H57.8762Z" fill="black"/>
</svg>
