<svg width="133" height="121" viewBox="0 0 133 121" fill="none" xmlns="http://www.w3.org/2000/svg">
<path d="M90.7901 88.3993H84.9588V13.773C84.9585 13.735 84.9583 13.6898 84.9583 13.6446C84.9583 6.12921 91.0345 0.0327429 98.5421 0H98.5453C106.056 0.0327429 112.133 6.12921 112.133 13.6446C112.133 13.6961 112.132 13.7473 112.132 13.7985V13.7907L106.301 13.7265C106.301 9.44319 102.829 5.971 98.5454 5.971C94.2623 5.971 90.7901 9.44306 90.7901 13.7264V88.399V88.3993ZM47.9898 88.3993H42.159V13.7615C42.1587 13.744 42.1587 13.7235 42.1587 13.7029C42.1587 6.16156 48.2509 0.0428277 55.7821 0H55.8154C63.3214 0.0392915 69.391 6.13314 69.391 13.6446C69.391 13.696 69.3907 13.7472 69.3902 13.7984V13.7905L63.5591 13.7264C63.5591 9.42708 60.0739 5.94179 55.7745 5.94179C51.4751 5.94179 47.9901 9.42695 47.9901 13.7264L47.9898 88.3993ZM87.8746 32.5375H45.0744V26.7064H87.8746V32.5375ZM87.8746 59.244H45.0744V53.4129H87.8746V59.244ZM29.0389 27.1729H2.33247V21.3418H29.0389V27.1729ZM130.617 27.1729H103.91V21.3418H130.617V27.1729ZM82.4224 88.6909C76.1859 88.6757 70.536 86.1775 66.4063 82.1328L66.4102 82.1368C62.2854 86.1681 56.6366 88.6552 50.4068 88.6552C44.177 88.6552 38.5282 86.1681 34.399 82.1326L34.4034 82.1369C30.2686 86.1706 24.61 88.6588 18.3701 88.6588C10.8844 88.6588 4.2351 85.0777 0.0419109 79.5353L0 79.4777L4.66482 75.9791C7.82608 80.1527 12.7855 82.8211 18.3679 82.8211C23.9503 82.8211 28.9098 80.1527 32.04 76.0218L32.0709 75.9791L34.4032 72.8712L36.7358 75.9791C39.8857 80.1519 44.8359 82.8211 50.4095 82.8211C55.9832 82.8211 60.9336 80.1519 64.0522 76.0224L64.0834 75.9791L66.416 72.8536L68.7483 75.9908C71.8859 80.1787 76.8366 82.8603 82.4136 82.8603C87.9907 82.8603 92.9415 80.179 96.0473 76.0351L96.079 75.9909L98.4116 72.8538L100.744 75.9793C103.894 80.152 108.844 82.8212 114.418 82.8212C119.991 82.8212 124.942 80.152 128.06 76.0225L128.092 75.9793L132.757 79.4779C128.533 85.0756 121.893 88.656 114.418 88.656C108.19 88.656 102.542 86.171 98.4127 82.1385L98.4172 82.1429C94.2947 86.1775 88.6519 88.6729 82.4261 88.6912H82.4227L82.4224 88.6909ZM82.4224 120.762C76.1859 120.747 70.536 118.249 66.4063 114.204L66.4102 114.208C62.2854 118.239 56.6366 120.726 50.4068 120.726C44.177 120.726 38.5282 118.239 34.399 114.204L34.4034 114.208C30.2686 118.242 24.61 120.73 18.3701 120.73C10.8844 120.73 4.2351 117.149 0.0419109 111.606L0 111.549L4.66482 108.05C7.82608 112.224 12.7855 114.892 18.3679 114.892C23.9503 114.892 28.9098 112.224 32.04 108.093L32.0709 108.05L34.4032 104.942L36.7358 108.05C39.8857 112.223 44.8359 114.892 50.4095 114.892C55.9832 114.892 60.9336 112.223 64.0522 108.093L64.0834 108.05L66.416 104.925L68.7483 108.062C71.8859 112.25 76.8366 114.931 82.4136 114.931C87.9907 114.931 92.9414 112.25 96.0471 108.106L96.0788 108.062L98.4114 104.925L100.744 108.05C103.894 112.223 108.844 114.892 114.418 114.892C119.991 114.892 124.942 112.223 128.06 108.094L128.092 108.05L132.756 111.549C128.533 117.147 121.893 120.727 114.418 120.727C108.19 120.727 102.542 118.242 98.4126 114.209L98.4171 114.214C94.2946 118.249 88.6518 120.744 82.426 120.762H82.4225L82.4224 120.762Z" fill="black"/>
</svg>
