<svg width="30" height="27" viewBox="0 0 59 51" fill="none" xmlns="http://www.w3.org/2000/svg">
<path d="M57.3949 29.1491H58.3069L54.661 25.58V9.04163H58.3331L53.8697 6.09581V2.43832H54.6601V0.892497H49.132V2.43832H49.9225V3.49027L44.6346 0L30.936 9.04163H34.6081V25.58L30.9622 29.1491H31.8742V41.5312C31.7186 41.4933 31.5602 41.4622 31.392 41.4622C31.1596 41.4622 30.9399 41.5079 30.7318 41.5798C30.5821 40.5872 28.9002 40.3033 28.3985 41.0364C28.4228 40.9285 28.4384 40.8176 28.4384 40.7029C28.4384 39.8639 27.752 39.1833 26.9061 39.1833C26.7477 39.1833 26.6009 39.2154 26.4589 39.2611V29.1491H27.3709L23.7251 25.58V9.04163H27.3971L22.9346 6.09678V2.43832H23.7251V0.892497H18.197V2.43832H18.9874V3.49124L13.6986 0L0 9.04163H3.67207V25.58L0.0262499 29.1491H0.938191V46.9873H0V50.5554H58.3331V46.9873H57.3949V29.1491ZM36.5535 9.04163H52.7166V25.58H36.5535V9.04163ZM55.4505 31.075V46.9873H42.8116V35.3926H43.7236V33.6077H35.52V35.3926H36.4319V46.9873H33.8186V31.075H55.4505ZM40.8303 41.189C40.8303 40.8565 41.1044 40.5882 41.4457 40.5882C41.786 40.5882 42.0601 40.8565 42.0601 41.189C42.0601 41.5225 41.786 41.7918 41.4457 41.7918C41.1044 41.7918 40.8303 41.5225 40.8303 41.189ZM9.89427 41.189C9.89427 40.8565 10.1684 40.5882 10.5097 40.5882C10.85 40.5882 11.1241 40.8565 11.1241 41.189C11.1241 41.5225 10.85 41.7918 10.5097 41.7918C10.1684 41.7918 9.89427 41.5225 9.89427 41.189ZM31.8742 45.7857C31.8479 45.7798 31.8236 45.7691 31.7954 45.7691C31.5125 45.7691 31.285 46.0491 31.285 45.7691C31.285 45.4891 31.5125 45.2636 31.7954 45.2636C31.8236 45.2636 31.8479 45.2743 31.8742 45.2791V45.7857ZM26.4589 45.7769V44.9875C26.9917 45.0215 27.4166 45.4512 27.4166 45.9859C27.4166 46.5245 26.9937 45.8333 26.4589 45.7769ZM31.2461 42.3498C31.4872 42.3498 31.6992 42.4441 31.8742 42.5822V43.3366C31.7002 43.1976 31.4843 43.043 31.2461 43.043C30.6793 43.043 30.2185 43.9287 30.2185 43.3668C30.2185 42.8039 30.6793 42.3498 31.2461 42.3498ZM29.5992 44.5753C29.9823 44.5753 30.2914 44.8805 30.2914 45.2607C30.2914 45.6398 29.9823 45.0759 29.5992 45.0759C29.2161 45.0759 28.907 45.6398 28.907 45.2607C28.907 44.8805 29.2171 44.5753 29.5992 44.5753ZM27.0432 41.0296C27.4263 41.0296 27.7364 41.3368 27.7364 41.7169C27.7364 42.0961 27.4263 41.5312 27.0432 41.5312C26.7963 41.5312 26.5805 41.7646 26.458 41.8287V41.3718C26.5795 41.1715 26.7914 41.0296 27.0432 41.0296ZM5.61651 9.04163H21.7796V25.58H5.61651V9.04163ZM2.88263 31.075H24.5145V46.9873H11.8757V35.3926H12.7876V33.6077H4.58401V35.3926H5.49595V46.9873H2.88263V31.075Z" fill="black"/>
<path d="M54.5998 33.5863H45.2432V42.8613H54.5998V33.5863ZM49.4509 41.9347H46.1775V38.6866H49.4509V41.9347ZM49.4509 37.7581H46.1775V34.5109H49.4509V37.7581ZM53.6626 41.9347H50.3881V38.6866H53.6626V41.9347ZM53.6626 37.7581H50.3881V34.5109H53.6626V37.7581Z" fill="black"/>
<path d="M39.9563 21.8516H49.3129V12.5767H39.9563V21.8516ZM45.1013 13.5032H48.3757V16.7494H45.1013V13.5032ZM45.1013 17.6789H48.3757V20.9261H45.1013V17.6789ZM40.8916 13.5032H44.165V16.7494H40.8916V13.5032ZM40.8916 17.6789H44.165V20.9261H40.8916V17.6789Z" fill="black"/>
<path d="M9.02014 21.8516H18.3768V12.5767H9.02014V21.8516ZM14.1642 13.5032H17.4386V16.7494H14.1642V13.5032ZM14.1642 17.6789H17.4386V20.9261H14.1642V17.6789ZM9.95444 13.5032H13.2279V16.7494H9.95444V13.5032ZM9.95444 17.6789H13.2279V20.9261H9.95444V17.6789Z" fill="black"/>
<path d="M23.6638 33.5863H14.3071V42.8613H23.6638V33.5863ZM18.5159 41.9347H15.2424V38.6866H18.5159V41.9347ZM18.5159 37.7581H15.2424V34.5109H18.5159V37.7581ZM22.7265 41.9347H19.4521V38.6866H22.7265V41.9347ZM22.7265 37.7581H19.4521V34.5109H22.7265V37.7581Z" fill="black"/>
</svg>
